#!OML:ASF H:\ManfredETheater\Project 1\Capture day 1\Session 1\subject.ASF
:FULLY-SPECIFIED
:DEGREES
127
root -1.49332 21.6329 3.58036 5.99027 5.64713 -10.4663
lowerback 13.4746 2.75764 6.38033
upperback 0.543694 4.92161 3.87145
thorax -6.79732 2.25983 -0.409575
lowerneck -18.7838 -4.69274 -4.23941
upperneck 11.6529 -5.54571 1.97149
head 6.7879 -2.68749 0.697312
rclavicle -1.61016e-014 5.1684e-015
rhumerus -47.7189 13.0674 -94.6879
rradius 115.224
rwrist -4.23065
rhand -25.5165 12.5268
rfingers 7.12502
rthumb 1.01272 -17.4506
lclavicle -1.61016e-014 5.1684e-015
lhumerus -72.0481 -15.6289 98.3379
lradius 112.002
lwrist 12.7029
lhand -18.5962 -19.2565
lfingers 7.12502
lthumb 7.69488 10.5835
rfemur -2.00756 -3.16555 36.1234
rtibia 40.5059
rfoot -7.39221 -6.6476
rtoes -36.8313
lfemur -60.9183 5.48692 -13.146
ltibia 62.7425
lfoot -0.473592 -18.1746
ltoes -10.5197
128
root -1.49453 21.6985 4.05303 6.29191 5.63465 -10.6619
lowerback 12.9773 2.69968 6.64094
upperback 0.423492 4.83228 3.69424
thorax -6.61403 2.21031 -0.699388
lowerneck -18.7894 -4.68455 -4.25489
upperneck 11.8659 -5.59152 2.31704
head 6.87087 -2.67851 0.804066
rclavicle -5.56597e-014 -2.90226e-014
rhumerus -48.4866 13.7668 -95.7247
rradius 114.85
rwrist -3.99406
rhand -24.823 12.9848
rfingers 7.12502
rthumb 1.68247 -16.9883
lclavicle -5.56597e-014 -2.90226e-014
lhumerus -71.6376 -15.06 98.5488
lradius 112.036
lwrist 12.642
lhand -18.1614 -19.3301
lfingers 7.12502
lthumb 8.11457 10.4941
rfemur -2.37584 -2.51859 36.1853
rtibia 42.032
rfoot -3.09932 -5.08889
rtoes -35.0236
lfemur -59.4929 5.38825 -12.8369
ltibia 60.5065
lfoot 0.582926 -17.7188
ltoes -11.2435
129
root -1.49356 21.7552 4.52452 6.53203 5.63518 -10.6802
lowerback 12.5576 2.59658 6.73969
upperback 0.321123 4.66263 3.49459
thorax -6.47152 2.12527 -0.914418
lowerneck -18.7574 -4.64143 -4.25673
upperneck 12.0458 -5.58378 2.58958
head 6.93269 -2.64989 0.892611
rclavicle -2.44008e-014 2.66371e-014
rhumerus -49.3333 14.3986 -96.721
rradius 114.179
rwrist -3.93589
rhand -24.1375 13.2443
rfingers 7.12502
rthumb 2.34459 -16.7226
lclavicle -2.44008e-014 2.66371e-014
lhumerus -70.9928 -14.5131 98.8083
lradius 112.028
lwrist 12.7398
lhand -17.7373 -19.3602
lfingers 7.12502
lthumb 8.52381 10.4478
rfemur -3.12917 -2.11626 35.9955
rtibia 44.1682
rfoot 1.04372 -3.66202
rtoes -32.469
lfemur -57.8855 5.13818 -12.6319
ltibia 58.778
lfoot 1.58697 -17.1331
ltoes -11.8311
130
root -1.49127 21.8013 4.99409 6.68655 5.65289 -10.4978
lowerback 12.2479 2.45325 6.64521
upperback 0.24671 4.41956 3.27611
thorax -6.37958 2.0086 -1.03712
lowerneck -18.7174 -4.56975 -4.24939
upperneck 12.2031 -5.52562 2.77466
head 6.98112 -2.60462 0.95782
rclavicle 4.01297e-014 -9.24349e-015
rhumerus -50.2467 14.9351 -97.6287
rradius 113.229
rwrist -4.05007
rhand -23.4705 13.3548
rfingers 7.12502
rthumb 2.98872 -16.604
lclavicle 4.01297e-014 -9.24349e-015
lhumerus -70.1051 -14.0264 99.1256
lradius 111.984
lwrist 12.9628
lhand -17.3538 -19.3463
lfingers 7.12502
lthumb 8.89392 10.4462
rfemur -4.1937 -1.99518 35.5366
rtibia 46.8469
rfoot 4.58371 -2.45599
rtoes -29.4004
lfemur -56.0733 4.75759 -12.5965
ltibia 57.5195
lfoot 2.47616 -16.6523
ltoes -11.1903
131
root -1.48845 21.8352 5.461 6.75055 5.68821 -10.1182
lowerback 12.0614 2.27653 6.35076
upperback 0.198052 4.11428 3.04445
thorax -6.34674 1.86564 -1.05987
lowerneck -18.6549 -4.47325 -4.22992
upperneck 12.3228 -5.42178 2.86748
head 7.00859 -2.54565 0.997366
rclavicle -9.77772e-015 3.36443e-014
rhumerus -51.2215 15.3399 -98.4121
rradius 112.019
rwrist -4.27183
rhand -22.8046 13.3376
rfingers 7.12502
rthumb 3.63175 -16.6112
lclavicle -9.77772e-015 3.36443e-014
lhumerus -68.9897 -13.6207 99.5043
lradius 111.913
lwrist 13.2393
lhand -17.0309 -19.298
lfingers 7.12502
lthumb 9.20553 10.4811
rfemur -5.50257 -2.1643 34.822
rtibia 49.9843
rfoot 7.11414 -1.55382
rtoes -26.6218
lfemur -54.0674 4.27837 -12.7637
ltibia 56.6626
lfoot 2.9057 -16.3451
ltoes -9.89499
132
root -1.48466 21.8555 5.92448 6.72616 5.74879 -9.55811
lowerback 12.0047 2.07127 5.88032
upperback 0.169501 3.75719 2.80169
thorax -6.37795 1.70069 -0.994146
lowerneck -18.5744 -4.35874 -4.20125
upperneck 12.417 -5.28263 2.88126
head 7.02077 -2.47689 1.01444
rclavicle -1.13307e-014 1.92821e-014
rhumerus -52.246 15.5722 -99.0404
rradius 110.568
rwrist -4.51227
rhand -22.1311 13.2315
rfingers 7.12502
rthumb 4.28213 -16.7052
lclavicle -1.13307e-014 1.92821e-014
lhumerus -67.6641 -13.3177 99.9415
lradius 111.819
lwrist 13.4951
lhand -16.7832 -19.2249
lfingers 7.12502
lthumb 9.44454 10.5435
rfemur -6.99757 -2.62829 33.8703
rtibia 53.4894
rfoot 8.48833 -0.995412
rtoes -24.5833
lfemur -51.8902 3.72472 -13.1493
ltibia 56.1042
lfoot 2.83949 -16.2298
ltoes -7.6035
133
root -1.47975 21.861 6.38355 6.63094 5.83623 -8.85953
lowerback 12.0715 1.84502 5.28198
upperback 0.154053 3.36302 2.55121
thorax -6.47059 1.51998 -0.862949
lowerneck -18.503 -4.23093 -4.18468
upperneck 12.5087 -5.11587 2.8605
head 7.03197 -2.39859 1.02527
rclavicle -1.52536e-014 -3.803e-014
rhumerus -53.2894 15.599 -99.4919
rradius 108.881
rwrist -4.69144
rhand -21.4607 13.0744
rfingers 7.12502
rthumb 4.92955 -16.8482
lclavicle -1.52536e-014 -3.803e-014
lhumerus -66.1461 -13.1333 100.421
lradius 111.713
lwrist 13.6718
lhand -16.6159 -19.1367
lfingers 7.12502
lthumb 9.60594 10.6243
rfemur -8.64923 -3.35285 32.7314
rtibia 57.2631
rfoot 8.78955 -0.858064
rtoes -23.2785
lfemur -49.5694 3.13961 -13.7309
ltibia 55.7549
lfoot 2.06886 -16.2342
ltoes -4.31237
